<?xml version="1.0" encoding="UTF-8"?>
<svg width="12px" height="14px" viewBox="0 0 12 14" version="1.1" xmlns="http://www.w3.org/2000/svg" xmlns:xlink="http://www.w3.org/1999/xlink">
    <!-- Generator: Sketch 39.1 (31720) - http://www.bohemiancoding.com/sketch -->
    <title>Shape</title>
    <desc>Created with Sketch.</desc>
    <defs></defs>
    <g id="Page-1" stroke="none" stroke-width="1" fill="none" fill-rule="evenodd" opacity="0.29">
        <g id="Главная" transform="translate(-332.000000, -188.000000)" fill="#000000">
            <g id="stream" transform="translate(185.000000, 56.000000)">
                <g id="stream-group" transform="translate(4.000000, 45.000000)">
                    <g id="filter-group" transform="translate(141.000000, 87.000000)">
                        <g id="Город">
                            <g id="ic_event_black_24px">
                                <g id="Group">
                                    <path d="M11.3333333,8 L8,8 L8,11.3333333 L11.3333333,11.3333333 L11.3333333,8 L11.3333333,8 Z M10.6666667,0.666666667 L10.6666667,2 L5.33333333,2 L5.33333333,0.666666667 L4,0.666666667 L4,2 L3.33333333,2 C2.59333333,2 2.00666667,2.6 2.00666667,3.33333333 L2,12.6666667 C2,13.4 2.59333333,14 3.33333333,14 L12.6666667,14 C13.4,14 14,13.4 14,12.6666667 L14,3.33333333 C14,2.6 13.4,2 12.6666667,2 L12,2 L12,0.666666667 L10.6666667,0.666666667 L10.6666667,0.666666667 Z M12.6666667,12.6666667 L3.33333333,12.6666667 L3.33333333,5.33333333 L12.6666667,5.33333333 L12.6666667,12.6666667 L12.6666667,12.6666667 Z" id="Shape"></path>
                                </g>
                            </g>
                        </g>
                    </g>
                </g>
            </g>
        </g>
    </g>
</svg>