<?xml version="1.0" encoding="UTF-8"?>
<svg width="15px" height="15px" viewBox="0 0 15 15" version="1.1" xmlns="http://www.w3.org/2000/svg" xmlns:xlink="http://www.w3.org/1999/xlink">
    <!-- Generator: Sketch 39.1 (31720) - http://www.bohemiancoding.com/sketch -->
    <title>Shape</title>
    <desc>Created with Sketch.</desc>
    <defs></defs>
    <g id="Page-1" stroke="none" stroke-width="1" fill="none" fill-rule="evenodd" opacity="0.238054801">
        <g id="Главная" transform="translate(-899.000000, -14.000000)" fill="#000000">
            <g id="Header">
                <g id="Profile" transform="translate(759.000000, 8.000000)">
                    <g id="ic_settings_black_24px" transform="translate(139.000000, 5.000000)">
                        <g id="Group">
                            <path d="M13.7629167,9.19416667 C13.79125,8.9675 13.8125,8.74083333 13.8125,8.5 C13.8125,8.25916667 13.79125,8.0325 13.7629167,7.80583333 L15.2575,6.63708333 C15.3920833,6.53083333 15.4275,6.33958333 15.3425,6.18375 L13.9258333,3.73291667 C13.8408333,3.57708333 13.6495833,3.52041667 13.49375,3.57708333 L11.73,4.28541667 C11.3616667,4.00208333 10.965,3.76833333 10.5329167,3.59125 L10.26375,1.71416667 C10.2425,1.54416667 10.09375,1.41666667 9.91666667,1.41666667 L7.08333333,1.41666667 C6.90625,1.41666667 6.7575,1.54416667 6.73625,1.71416667 L6.46708333,3.59125 C6.035,3.76833333 5.63833333,4.00916667 5.27,4.28541667 L3.50625,3.57708333 C3.34333333,3.51333333 3.15916667,3.57708333 3.07416667,3.73291667 L1.6575,6.18375 C1.56541667,6.33958333 1.60791667,6.53083333 1.7425,6.63708333 L3.23708333,7.80583333 C3.20875,8.0325 3.1875,8.26625 3.1875,8.5 C3.1875,8.73375 3.20875,8.9675 3.23708333,9.19416667 L1.7425,10.3629167 C1.60791667,10.4691667 1.5725,10.6604167 1.6575,10.81625 L3.07416667,13.2670833 C3.15916667,13.4229167 3.35041667,13.4795833 3.50625,13.4229167 L5.27,12.7145833 C5.63833333,12.9979167 6.035,13.2316667 6.46708333,13.40875 L6.73625,15.2858333 C6.7575,15.4558333 6.90625,15.5833333 7.08333333,15.5833333 L9.91666667,15.5833333 C10.09375,15.5833333 10.2425,15.4558333 10.26375,15.2858333 L10.5329167,13.40875 C10.965,13.2316667 11.3616667,12.9908333 11.73,12.7145833 L13.49375,13.4229167 C13.6566667,13.4866667 13.8408333,13.4229167 13.9258333,13.2670833 L15.3425,10.81625 C15.4275,10.6604167 15.3920833,10.4691667 15.2575,10.3629167 L13.7629167,9.19416667 L13.7629167,9.19416667 Z M8.5,10.9791667 C7.13291667,10.9791667 6.02083333,9.86708333 6.02083333,8.5 C6.02083333,7.13291667 7.13291667,6.02083333 8.5,6.02083333 C9.86708333,6.02083333 10.9791667,7.13291667 10.9791667,8.5 C10.9791667,9.86708333 9.86708333,10.9791667 8.5,10.9791667 L8.5,10.9791667 Z" id="Shape"></path>
                        </g>
                    </g>
                </g>
            </g>
        </g>
    </g>
</svg>