<?xml version="1.0" encoding="UTF-8"?>
<svg width="12px" height="14px" viewBox="0 0 12 14" version="1.1" xmlns="http://www.w3.org/2000/svg" xmlns:xlink="http://www.w3.org/1999/xlink">
    <!-- Generator: Sketch 39.1 (31720) - http://www.bohemiancoding.com/sketch -->
    <title>Shape</title>
    <desc>Created with Sketch.</desc>
    <defs></defs>
    <g id="Page-1" stroke="none" stroke-width="1" fill="none" fill-rule="evenodd">
        <g id="Страница-объявления" transform="translate(-488.000000, -621.000000)" fill="#000000">
            <g id="stream" transform="translate(309.000000, 66.000000)">
                <g id="stream-group" transform="translate(0.000000, 358.000000)">
                    <g id="Group-6">
                        <g id="Group-7" transform="translate(18.000000, 186.000000)">
                            <g id="Group-2" transform="translate(159.000000, 10.000000)">
                                <g id="ic_share_black_24px">
                                    <g id="Group">
                                        <path d="M12,10.72 C11.4933333,10.72 11.04,10.92 10.6933333,11.2333333 L5.94,8.46666667 C5.97333333,8.31333333 6,8.16 6,8 C6,7.84 5.97333333,7.68666667 5.94,7.53333333 L10.64,4.79333333 C11,5.12666667 11.4733333,5.33333333 12,5.33333333 C13.1066667,5.33333333 14,4.44 14,3.33333333 C14,2.22666667 13.1066667,1.33333333 12,1.33333333 C10.8933333,1.33333333 10,2.22666667 10,3.33333333 C10,3.49333333 10.0266667,3.64666667 10.06,3.8 L5.36,6.54 C5,6.20666667 4.52666667,6 4,6 C2.89333333,6 2,6.89333333 2,8 C2,9.10666667 2.89333333,10 4,10 C4.52666667,10 5,9.79333333 5.36,9.46 L10.1066667,12.2333333 C10.0733333,12.3733333 10.0533333,12.52 10.0533333,12.6666667 C10.0533333,13.74 10.9266667,14.6133333 12,14.6133333 C13.0733333,14.6133333 13.9466667,13.74 13.9466667,12.6666667 C13.9466667,11.5933333 13.0733333,10.72 12,10.72 L12,10.72 Z" id="Shape"></path>
                                    </g>
                                </g>
                            </g>
                        </g>
                    </g>
                </g>
            </g>
        </g>
    </g>
</svg>