<?xml version="1.0" encoding="UTF-8"?>
<svg width="28px" height="26px" viewBox="0 0 28 26" version="1.1" xmlns="http://www.w3.org/2000/svg" xmlns:xlink="http://www.w3.org/1999/xlink">
    <!-- Generator: Sketch 39.1 (31720) - http://www.bohemiancoding.com/sketch -->
    <title>Shape</title>
    <desc>Created with Sketch.</desc>
    <defs></defs>
    <g id="Page-1" stroke="none" stroke-width="1" fill="none" fill-rule="evenodd">
        <g id="Добавить" transform="translate(-260.000000, -914.000000)" fill="#4990E2">
            <g id="stream" transform="translate(194.000000, 66.000000)">
                <g id="addform">
                    <g id="addfrom-group" transform="translate(15.000000, 759.000000)">
                        <g id="sign-input" transform="translate(1.000000, 42.000000)">
                            <g id="Group-2" transform="translate(0.000000, 27.000000)">
                                <g id="ic_add_a_photo_black_24px" transform="translate(50.000000, 19.000000)">
                                    <g id="Clipped">
                                        <path d="M3.625,4.83333333 L3.625,1.20833333 L6.04166667,1.20833333 L6.04166667,4.83333333 L9.66666667,4.83333333 L9.66666667,7.25 L6.04166667,7.25 L6.04166667,10.875 L3.625,10.875 L3.625,7.25 L0,7.25 L0,4.83333333 L3.625,4.83333333 L3.625,4.83333333 Z M7.25,12.0833333 L7.25,8.45833333 L10.875,8.45833333 L10.875,4.83333333 L19.3333333,4.83333333 L21.5445833,7.25 L25.375,7.25 C26.7041667,7.25 27.7916667,8.3375 27.7916667,9.66666667 L27.7916667,24.1666667 C27.7916667,25.4958333 26.7041667,26.5833333 25.375,26.5833333 L6.04166667,26.5833333 C4.7125,26.5833333 3.625,25.4958333 3.625,24.1666667 L3.625,12.0833333 L7.25,12.0833333 L7.25,12.0833333 Z M15.7083333,22.9583333 C19.0433333,22.9583333 21.75,20.2516667 21.75,16.9166667 C21.75,13.5816667 19.0433333,10.875 15.7083333,10.875 C12.3733333,10.875 9.66666667,13.5816667 9.66666667,16.9166667 C9.66666667,20.2516667 12.3733333,22.9583333 15.7083333,22.9583333 L15.7083333,22.9583333 Z M11.8416667,16.9166667 C11.8416667,19.0554167 13.5695833,20.7833333 15.7083333,20.7833333 C17.8470833,20.7833333 19.575,19.0554167 19.575,16.9166667 C19.575,14.7779167 17.8470833,13.05 15.7083333,13.05 C13.5695833,13.05 11.8416667,14.7779167 11.8416667,16.9166667 L11.8416667,16.9166667 Z" id="Shape"></path>
                                    </g>
                                </g>
                            </g>
                        </g>
                    </g>
                </g>
            </g>
        </g>
    </g>
</svg>