<?xml version="1.0" encoding="UTF-8"?>
<svg width="13px" height="15px" viewBox="0 0 13 15" version="1.1" xmlns="http://www.w3.org/2000/svg" xmlns:xlink="http://www.w3.org/1999/xlink">
    <!-- Generator: Sketch 39.1 (31720) - http://www.bohemiancoding.com/sketch -->
    <title>Shape</title>
    <desc>Created with Sketch.</desc>
    <defs></defs>
    <g id="Page-1" stroke="none" stroke-width="1" fill="none" fill-rule="evenodd" opacity="0.285948822">
        <g id="Главная" transform="translate(-29.000000, -96.000000)" fill="#000000">
            <g id="sidebar-menu" transform="translate(26.000000, 66.000000)">
                <g id="Мои-объявления" transform="translate(1.000000, 29.000000)">
                    <g id="ic_receipt_black_24px">
                        <g id="Group">
                            <path d="M12.75,12.0416667 L4.25,12.0416667 L4.25,10.625 L12.75,10.625 L12.75,12.0416667 L12.75,12.0416667 Z M12.75,9.20833333 L4.25,9.20833333 L4.25,7.79166667 L12.75,7.79166667 L12.75,9.20833333 L12.75,9.20833333 Z M12.75,6.375 L4.25,6.375 L4.25,4.95833333 L12.75,4.95833333 L12.75,6.375 L12.75,6.375 Z M2.125,15.5833333 L3.1875,14.5208333 L4.25,15.5833333 L5.3125,14.5208333 L6.375,15.5833333 L7.4375,14.5208333 L8.5,15.5833333 L9.5625,14.5208333 L10.625,15.5833333 L11.6875,14.5208333 L12.75,15.5833333 L13.8125,14.5208333 L14.875,15.5833333 L14.875,1.41666667 L13.8125,2.47916667 L12.75,1.41666667 L11.6875,2.47916667 L10.625,1.41666667 L9.5625,2.47916667 L8.5,1.41666667 L7.4375,2.47916667 L6.375,1.41666667 L5.3125,2.47916667 L4.25,1.41666667 L3.1875,2.47916667 L2.125,1.41666667 L2.125,15.5833333 L2.125,15.5833333 Z" id="Shape"></path>
                        </g>
                    </g>
                </g>
            </g>
        </g>
    </g>
</svg>