<?xml version="1.0" encoding="UTF-8"?>
<svg width="11px" height="12px" viewBox="0 0 11 12" version="1.1" xmlns="http://www.w3.org/2000/svg" xmlns:xlink="http://www.w3.org/1999/xlink">
    <!-- Generator: Sketch 39.1 (31720) - http://www.bohemiancoding.com/sketch -->
    <title>Shape</title>
    <desc>Created with Sketch.</desc>
    <defs></defs>
    <g id="Page-1" stroke="none" stroke-width="1" fill="none" fill-rule="evenodd" opacity="0.29">
        <g id="Главная" transform="translate(-563.000000, -167.000000)" fill="#000000">
            <g id="stream" transform="translate(185.000000, 56.000000)">
                <g id="stream-group" transform="translate(4.000000, 45.000000)">
                    <g id="filter-group" transform="translate(373.000000, 66.000000)">
                        <g id="Город">
                            <g id="ic_account_balance_black_24px">
                                <g id="Group">
                                    <path d="M2.16666667,5.41666667 L2.16666667,9.20833333 L3.79166667,9.20833333 L3.79166667,5.41666667 L2.16666667,5.41666667 L2.16666667,5.41666667 Z M5.41666667,5.41666667 L5.41666667,9.20833333 L7.04166667,9.20833333 L7.04166667,5.41666667 L5.41666667,5.41666667 L5.41666667,5.41666667 Z M1.08333333,11.9166667 L11.375,11.9166667 L11.375,10.2916667 L1.08333333,10.2916667 L1.08333333,11.9166667 L1.08333333,11.9166667 Z M8.66666667,5.41666667 L8.66666667,9.20833333 L10.2916667,9.20833333 L10.2916667,5.41666667 L8.66666667,5.41666667 L8.66666667,5.41666667 Z M6.22916667,0.541666667 L1.08333333,3.25 L1.08333333,4.33333333 L11.375,4.33333333 L11.375,3.25 L6.22916667,0.541666667 L6.22916667,0.541666667 Z" id="Shape"></path>
                                </g>
                            </g>
                        </g>
                    </g>
                </g>
            </g>
        </g>
    </g>
</svg>