<?xml version="1.0" encoding="UTF-8"?>
<svg width="18px" height="20px" viewBox="0 0 18 20" version="1.1" xmlns="http://www.w3.org/2000/svg" xmlns:xlink="http://www.w3.org/1999/xlink">
    <!-- Generator: Sketch 39.1 (31720) - http://www.bohemiancoding.com/sketch -->
    <title>Shape</title>
    <desc>Created with Sketch.</desc>
    <defs></defs>
    <g id="Page-1" stroke="none" stroke-width="1" fill="none" fill-rule="evenodd">
        <g id="Добавить" transform="translate(-185.000000, -827.000000)" fill="#B5B5B5">
            <g id="ic_contacts_black_24px" transform="translate(184.000000, 827.000000)">
                <g id="Group">
                    <path d="M16.6666667,0 L3.33333333,0 L3.33333333,1.66666667 L16.6666667,1.66666667 L16.6666667,0 L16.6666667,0 Z M3.33333333,20 L16.6666667,20 L16.6666667,18.3333333 L3.33333333,18.3333333 L3.33333333,20 L3.33333333,20 Z M16.6666667,3.33333333 L3.33333333,3.33333333 C2.41666667,3.33333333 1.66666667,4.08333333 1.66666667,5 L1.66666667,15 C1.66666667,15.9166667 2.41666667,16.6666667 3.33333333,16.6666667 L16.6666667,16.6666667 C17.5833333,16.6666667 18.3333333,15.9166667 18.3333333,15 L18.3333333,5 C18.3333333,4.08333333 17.5833333,3.33333333 16.6666667,3.33333333 L16.6666667,3.33333333 Z M10,5.625 C11.0333333,5.625 11.875,6.46666667 11.875,7.5 C11.875,8.53333333 11.0333333,9.375 10,9.375 C8.96666667,9.375 8.125,8.53333333 8.125,7.5 C8.125,6.46666667 8.96666667,5.625 10,5.625 L10,5.625 Z M14.1666667,14.1666667 L5.83333333,14.1666667 L5.83333333,12.9166667 C5.83333333,11.525 8.60833333,10.8333333 10,10.8333333 C11.3916667,10.8333333 14.1666667,11.525 14.1666667,12.9166667 L14.1666667,14.1666667 L14.1666667,14.1666667 Z" id="Shape"></path>
                </g>
            </g>
        </g>
    </g>
</svg>