<?xml version="1.0" encoding="UTF-8"?>
<svg width="26px" height="26px" viewBox="0 0 26 26" version="1.1" xmlns="http://www.w3.org/2000/svg" xmlns:xlink="http://www.w3.org/1999/xlink">
    <!-- Generator: Sketch 39.1 (31720) - http://www.bohemiancoding.com/sketch -->
    <title>Shape</title>
    <desc>Created with Sketch.</desc>
    <defs></defs>
    <g id="Page-1" stroke="none" stroke-width="1" fill="none" fill-rule="evenodd">
        <g id="Desktop-HD" transform="translate(-217.000000, -73.000000)" fill="#000000">
            <g id="main" transform="translate(215.000000, 71.000000)">
                <g id="hot-headline">
                    <g id="ic_add_to_photos_black_24px">
                        <g id="Group">
                            <path d="M5,7.5 L2.5,7.5 L2.5,25 C2.5,26.375 3.625,27.5 5,27.5 L22.5,27.5 L22.5,25 L5,25 L5,7.5 L5,7.5 Z M25,2.5 L10,2.5 C8.625,2.5 7.5,3.625 7.5,5 L7.5,20 C7.5,21.375 8.625,22.5 10,22.5 L25,22.5 C26.375,22.5 27.5,21.375 27.5,20 L27.5,5 C27.5,3.625 26.375,2.5 25,2.5 L25,2.5 Z M23.75,13.75 L18.75,13.75 L18.75,18.75 L16.25,18.75 L16.25,13.75 L11.25,13.75 L11.25,11.25 L16.25,11.25 L16.25,6.25 L18.75,6.25 L18.75,11.25 L23.75,11.25 L23.75,13.75 L23.75,13.75 Z" id="Shape"></path>
                        </g>
                    </g>
                </g>
            </g>
        </g>
    </g>
</svg>