<?xml version="1.0" encoding="UTF-8"?>
<svg width="15px" height="13px" viewBox="0 0 15 13" version="1.1" xmlns="http://www.w3.org/2000/svg" xmlns:xlink="http://www.w3.org/1999/xlink">
    <!-- Generator: Sketch 39.1 (31720) - http://www.bohemiancoding.com/sketch -->
    <title>Shape</title>
    <desc>Created with Sketch.</desc>
    <defs></defs>
    <g id="Page-1" stroke="none" stroke-width="1" fill="none" fill-rule="evenodd" opacity="0.29">
        <g id="Главная" transform="translate(-332.000000, -166.000000)" fill="#000000">
            <g id="stream" transform="translate(185.000000, 56.000000)">
                <g id="stream-group" transform="translate(4.000000, 45.000000)">
                    <g id="filter-group" transform="translate(142.000000, 63.000000)">
                        <g id="Город">
                            <g id="ic_business_black_18px">
                                <g id="Group">
                                    <path d="M8.5,4.95833333 L8.5,2.125 L1.41666667,2.125 L1.41666667,14.875 L15.5833333,14.875 L15.5833333,4.95833333 L8.5,4.95833333 L8.5,4.95833333 Z M4.25,13.4583333 L2.83333333,13.4583333 L2.83333333,12.0416667 L4.25,12.0416667 L4.25,13.4583333 L4.25,13.4583333 Z M4.25,10.625 L2.83333333,10.625 L2.83333333,9.20833333 L4.25,9.20833333 L4.25,10.625 L4.25,10.625 Z M4.25,7.79166667 L2.83333333,7.79166667 L2.83333333,6.375 L4.25,6.375 L4.25,7.79166667 L4.25,7.79166667 Z M4.25,4.95833333 L2.83333333,4.95833333 L2.83333333,3.54166667 L4.25,3.54166667 L4.25,4.95833333 L4.25,4.95833333 Z M7.08333333,13.4583333 L5.66666667,13.4583333 L5.66666667,12.0416667 L7.08333333,12.0416667 L7.08333333,13.4583333 L7.08333333,13.4583333 Z M7.08333333,10.625 L5.66666667,10.625 L5.66666667,9.20833333 L7.08333333,9.20833333 L7.08333333,10.625 L7.08333333,10.625 Z M7.08333333,7.79166667 L5.66666667,7.79166667 L5.66666667,6.375 L7.08333333,6.375 L7.08333333,7.79166667 L7.08333333,7.79166667 Z M7.08333333,4.95833333 L5.66666667,4.95833333 L5.66666667,3.54166667 L7.08333333,3.54166667 L7.08333333,4.95833333 L7.08333333,4.95833333 Z M14.1666667,13.4583333 L8.5,13.4583333 L8.5,12.0416667 L9.91666667,12.0416667 L9.91666667,10.625 L8.5,10.625 L8.5,9.20833333 L9.91666667,9.20833333 L9.91666667,7.79166667 L8.5,7.79166667 L8.5,6.375 L14.1666667,6.375 L14.1666667,13.4583333 L14.1666667,13.4583333 Z M12.75,7.79166667 L11.3333333,7.79166667 L11.3333333,9.20833333 L12.75,9.20833333 L12.75,7.79166667 L12.75,7.79166667 Z M12.75,10.625 L11.3333333,10.625 L11.3333333,12.0416667 L12.75,12.0416667 L12.75,10.625 L12.75,10.625 Z" id="Shape"></path>
                                </g>
                            </g>
                        </g>
                    </g>
                </g>
            </g>
        </g>
    </g>
</svg>