<?xml version="1.0" encoding="UTF-8"?>
<svg width="15px" height="13px" viewBox="0 0 15 13" version="1.1" xmlns="http://www.w3.org/2000/svg" xmlns:xlink="http://www.w3.org/1999/xlink">
    <!-- Generator: Sketch 39.1 (31720) - http://www.bohemiancoding.com/sketch -->
    <title>Shape</title>
    <desc>Created with Sketch.</desc>
    <defs></defs>
    <g id="Page-1" stroke="none" stroke-width="1" fill="none" fill-rule="evenodd" opacity="0.29">
        <g id="Главная" transform="translate(-432.000000, -167.000000)" fill="#000000">
            <g id="stream" transform="translate(185.000000, 56.000000)">
                <g id="stream-group" transform="translate(4.000000, 45.000000)">
                    <g id="filter-group" transform="translate(243.000000, 65.000000)">
                        <g id="Город">
                            <g id="ic_aspect_ratio_black_24px">
                                <g id="Group">
                                    <path d="M11.875,7.5 L10.625,7.5 L10.625,9.375 L8.75,9.375 L8.75,10.625 L11.875,10.625 L11.875,7.5 L11.875,7.5 Z M4.375,5.625 L6.25,5.625 L6.25,4.375 L3.125,4.375 L3.125,7.5 L4.375,7.5 L4.375,5.625 L4.375,5.625 Z M13.125,1.875 L1.875,1.875 C1.1875,1.875 0.625,2.4375 0.625,3.125 L0.625,11.875 C0.625,12.5625 1.1875,13.125 1.875,13.125 L13.125,13.125 C13.8125,13.125 14.375,12.5625 14.375,11.875 L14.375,3.125 C14.375,2.4375 13.8125,1.875 13.125,1.875 L13.125,1.875 Z M13.125,11.88125 L1.875,11.88125 L1.875,3.11875 L13.125,3.11875 L13.125,11.88125 L13.125,11.88125 Z" id="Shape"></path>
                                </g>
                            </g>
                        </g>
                    </g>
                </g>
            </g>
        </g>
    </g>
</svg>