<?xml version="1.0" encoding="UTF-8"?>
<svg width="17px" height="17px" viewBox="0 0 17 17" version="1.1" xmlns="http://www.w3.org/2000/svg" xmlns:xlink="http://www.w3.org/1999/xlink">
    <!-- Generator: Sketch 39.1 (31720) - http://www.bohemiancoding.com/sketch -->
    <title>Shape</title>
    <desc>Created with Sketch.</desc>
    <defs></defs>
    <g id="Page-1" stroke="none" stroke-width="1" fill="none" fill-rule="evenodd">
        <g id="Страница-объявления" transform="translate(-318.000000, -399.000000)" fill="#FFFFFF">
            <g id="stream" transform="translate(309.000000, 66.000000)">
                <g id="photo">
                    <g id="photo-navigation" transform="translate(1.000000, 324.000000)">
                        <g id="ic_3d_rotation_white_24px" transform="translate(8.000000, 9.000000)">
                            <g id="Group">
                                <path d="M5.32666667,15.215 C3.01041667,14.1241667 1.35291667,11.8716667 1.09791667,9.20833333 L0.0354166667,9.20833333 C0.396666667,13.5716667 4.04458333,17 8.5,17 L8.9675,16.97875 L6.26875,14.28 L5.32666667,15.215 L5.32666667,15.215 Z M5.95708333,10.5966667 C5.8225,10.5966667 5.695,10.5754167 5.58875,10.54 C5.47541667,10.4975 5.38333333,10.4479167 5.30541667,10.37 C5.2275,10.2991667 5.16375,10.2141667 5.12125,10.1079167 C5.07875,10.00875 5.0575,9.89541667 5.0575,9.775 L4.13666667,9.775 C4.13666667,10.03 4.18625,10.2566667 4.28541667,10.4479167 C4.38458333,10.6391667 4.51916667,10.8020833 4.68208333,10.9366667 C4.85208333,11.0641667 5.04333333,11.1633333 5.26291667,11.2270833 C5.47541667,11.2979167 5.70208333,11.3333333 5.94291667,11.3333333 C6.205,11.3333333 6.45291667,11.2979167 6.6725,11.2270833 C6.89916667,11.15625 7.0975,11.05 7.26041667,10.9154167 C7.42333333,10.7808333 7.55791667,10.6108333 7.65,10.4054167 C7.74208333,10.2 7.79166667,9.97333333 7.79166667,9.71833333 C7.79166667,9.58375 7.7775,9.44916667 7.74208333,9.32166667 C7.70666667,9.19416667 7.65708333,9.07375 7.57916667,8.96041667 C7.50833333,8.84708333 7.40916667,8.74791667 7.29583333,8.65583333 C7.17541667,8.56375 7.03375,8.49291667 6.86375,8.43625 C7.00541667,8.3725 7.12583333,8.29458333 7.23208333,8.2025 C7.33833333,8.11041667 7.42333333,8.01125 7.49416667,7.905 C7.565,7.79875 7.61458333,7.6925 7.65,7.57916667 C7.68541667,7.46583333 7.69958333,7.3525 7.69958333,7.23916667 C7.69958333,6.98416667 7.65708333,6.7575 7.57208333,6.55916667 C7.48708333,6.36083333 7.36666667,6.19791667 7.21083333,6.07041667 C7.06916667,5.93583333 6.87791667,5.83666667 6.66541667,5.76583333 C6.44583333,5.70208333 6.205,5.66666667 5.94291667,5.66666667 C5.68791667,5.66666667 5.45416667,5.70208333 5.23458333,5.78 C5.02208333,5.85791667 4.83083333,5.96416667 4.675,6.09875 C4.52625,6.23333333 4.40583333,6.38916667 4.31375,6.57333333 C4.22875,6.7575 4.18625,6.95583333 4.18625,7.17541667 L5.10708333,7.17541667 C5.10708333,7.055 5.12833333,6.94875 5.17083333,6.85666667 C5.21333333,6.76458333 5.27,6.67958333 5.34791667,6.61583333 C5.42583333,6.55208333 5.51083333,6.49541667 5.61708333,6.46 C5.72333333,6.42458333 5.82958333,6.40333333 5.95708333,6.40333333 C6.24041667,6.40333333 6.45291667,6.47416667 6.5875,6.62291667 C6.72208333,6.76458333 6.79291667,6.97 6.79291667,7.23208333 C6.79291667,7.35958333 6.77166667,7.47291667 6.73625,7.57916667 C6.70083333,7.68541667 6.63708333,7.77041667 6.55916667,7.84125 C6.48125,7.91208333 6.38208333,7.96875 6.26875,8.01125 C6.15541667,8.05375 6.01375,8.075 5.85791667,8.075 L5.3125,8.075 L5.3125,8.80458333 L5.85791667,8.80458333 C6.01375,8.80458333 6.15541667,8.81875 6.28291667,8.85416667 C6.41041667,8.88958333 6.51666667,8.94625 6.60166667,9.01708333 C6.68666667,9.095 6.7575,9.18708333 6.80708333,9.30041667 C6.85666667,9.41375 6.87791667,9.54833333 6.87791667,9.70416667 C6.87791667,9.99458333 6.79291667,10.2141667 6.63,10.3629167 C6.46708333,10.5258333 6.24041667,10.5966667 5.95708333,10.5966667 L5.95708333,10.5966667 Z M12.0133333,6.40333333 C11.7866667,6.16958333 11.5175,5.98541667 11.2058333,5.85791667 C10.90125,5.73041667 10.5541667,5.66666667 10.1716667,5.66666667 L8.5,5.66666667 L8.5,11.3333333 L10.1291667,11.3333333 C10.51875,11.3333333 10.88,11.2695833 11.19875,11.1420833 C11.5175,11.0145833 11.79375,10.8375 12.0204167,10.60375 C12.2470833,10.37 12.4241667,10.0866667 12.5445833,9.76083333 C12.665,9.42791667 12.72875,9.05958333 12.72875,8.64875 L12.72875,8.36541667 C12.72875,7.95458333 12.665,7.58625 12.5445833,7.25333333 C12.4170833,6.92041667 12.24,6.63708333 12.0133333,6.40333333 L12.0133333,6.40333333 Z M11.7370833,8.64166667 C11.7370833,8.93916667 11.7016667,9.20125 11.6379167,9.44208333 C11.5670833,9.67583333 11.4679167,9.88125 11.3333333,10.0441667 C11.19875,10.2070833 11.02875,10.3345833 10.8304167,10.4195833 C10.625,10.5045833 10.39125,10.5470833 10.1291667,10.5470833 L9.48458333,10.5470833 L9.48458333,6.46 L10.1716667,6.46 C10.6816667,6.46 11.07125,6.62291667 11.3333333,6.94875 C11.6025,7.27458333 11.7370833,7.74208333 11.7370833,8.35833333 L11.7370833,8.64166667 L11.7370833,8.64166667 Z M8.5,0 L8.0325,0.02125 L10.73125,2.72 L11.6733333,1.77791667 C13.9895833,2.87583333 15.6470833,5.12125 15.895,7.78458333 L16.9575,7.78458333 C16.6033333,3.42833333 12.9554167,0 8.5,0 L8.5,0 Z" id="Shape"></path>
                            </g>
                        </g>
                    </g>
                </g>
            </g>
        </g>
    </g>
</svg>